<?xml version="1.0" encoding="UTF-8"?>
<svg width="40px" height="40px" viewBox="0 0 40 40" version="1.1" xmlns="http://www.w3.org/2000/svg" xmlns:xlink="http://www.w3.org/1999/xlink">
    <title>Hive</title>
    <g id="数据源" stroke="none" stroke-width="1" fill="none" fill-rule="evenodd">
        <g id="Hive" fill-rule="nonzero">
            <rect id="矩形" fill="#000000" opacity="0" x="0" y="0" width="40" height="40"></rect>
            <path d="M23.7362637,29.8901099 L23.7362637,37.3626374 L25.5449668,37.3626374 L25.5449668,33.9269925 L25.9279863,33.9269925 L25.9279863,37.3626374 L27.7579682,37.3626374 L27.7579682,29.8901099 L25.9279863,29.8901099 L25.9279863,32.6600985 L25.5449668,32.6600985 L25.5449668,29.8901099 L23.7362637,29.8901099 L23.7362637,29.8901099 Z M30.0348061,29.8901099 L28.2686608,29.8901099 L28.2686608,37.3626374 L30.0348061,37.3626374 L30.0348061,29.8901099 L30.0348061,29.8901099 Z M30.3114313,29.8901099 L31.715836,37.3626374 L33.8224431,37.3626374 L35.2268478,29.8901099 L33.3543082,29.8901099 L32.8861733,33.0895541 C32.8436156,33.2183908 32.7159424,33.2183908 32.6946636,33.0895541 L32.2265287,29.8901099 L30.3114313,29.8901099 Z M39.1208791,29.8901099 L35.6098673,29.8901099 L35.6098673,37.3626374 L39.1208791,37.3626374 L39.1208791,35.4086144 L37.1632241,35.3871416 L37.1632241,34.5497032 L38.0994939,34.5497032 L38.0994939,32.5956802 L37.1632241,32.5956802 L37.1632241,31.8441329 L39.1208791,31.8441329 L39.1208791,29.8901099 L39.1208791,29.8901099 Z" id="形状" fill="#000000"></path>
            <path d="M20.0106145,7.46096178 C19.7105373,6.65028627 9.44361117,2.68224301 9.31500667,3.10891433 C7.4288073,3.59958635 6.65718028,5.75427651 5.37113525,7.11962472 L2.49896803,6.9489562 C1.23435708,8.57030721 0.569900485,10.2343253 1.02001624,11.9410106 C2.64900661,14.1597015 4.53520599,16.0370553 5.69264651,18.7890853 C5.77838285,20.0904328 11.3298105,18.9170867 12.5301192,18.6610839 C10.9011289,19.8130964 9.48647934,21.605116 10.1080678,26.7891725 C10.665354,29.221199 11.0511675,31.9305619 15.9595726,34.6612583 C16.6025952,35.023929 17.9529424,35.4506003 18.7674376,35.7492702 C19.5604987,36.1119408 20.4821643,36.2612758 23.0971225,35.4719338 C24.6189425,34.8319269 26.2479329,34.4265891 27.7268846,33.7865821 L25.9478557,33.8719164 C23.5043701,33.9145835 21.5967367,34.1065856 21.0180164,33.4239115 L18.7674376,29.5198689 L20.0749167,26.9811746 C21.8968139,27.1731767 22.4969682,28.6451927 24.1045245,29.1998655 L25.9907239,27.8131837 C31.4778493,31.0345521 33.6641259,25.7651613 34.2857143,21.6691167 C34.221412,20.0050985 30.64192,22.2024558 30.877695,21.4131139 C30.9634313,19.6210944 29.4844795,17.2744021 28.5413798,15.4397154 L29.6345181,11.1943358 C30.127502,10.7463309 27.3196371,6.03161286 25.0261901,5.45560658 C23.0328203,4.92226743 20.0106145,7.46096178 20.0106145,7.46096178 Z" id="路径" fill="#FDEE21"></path>
            <path d="M29.29903,16.2637363 C29.3196043,16.7004592 29.3196043,17.2411638 29.360753,17.5739051 C29.360753,17.823461 29.1550095,17.8442574 29.010989,17.88585 L30.0397068,18.260184 C30.2454503,18.6137216 30.4100451,18.9464629 30.57464,19.3000005 C30.7598092,20.15265 30.6157887,20.1734464 30.4923426,20.2358354 C30.1220042,20.2358354 29.7516658,20.2358354 29.4019018,20.1734464 C29.5664966,20.2566317 29.5870709,20.3190207 29.6076453,20.4230023 C29.6282197,20.6101693 29.5047735,20.8805216 29.29903,21.1508739 C29.6076453,21.3172445 30.1631529,21.4836152 30.57464,21.6499858 L31.0478501,20.589373 C30.8215322,19.0504445 30.1837272,17.6362941 29.29903,16.2637363 L29.29903,16.2637363 Z M31.212445,21.4628189 C31.7885269,21.7123748 32.5703524,21.6291895 33.6607932,21.0676886 C33.825388,20.9429106 33.9694085,21.0260959 33.6813676,21.2132629 C32.2411627,22.5026354 31.562209,21.8579491 31.212445,21.4628189 L31.212445,21.4628189 Z" id="形状" fill="#C8C037"></path>
            <path d="M33.729813,21.1430531 C33.8982118,21.481459 33.7929625,21.7352633 33.729813,22.0313685 C33.5403642,23.4695933 33.0983171,24.5905627 32.2352728,25.7749831 C29.4145914,30.343462 26.5518103,27.4881627 24.2784252,25.6269306 L23.3311815,27.9957715 C23.2890818,28.2072751 23.0785832,28.3553277 24.5520734,29.010989 L26.0466136,27.9534707 C31.7721759,32.310446 35.8137492,21.8198648 33.729813,21.1430531 L33.729813,21.1430531 Z M24.9730707,25.2250736 C24.5941732,25.246224 23.4364308,25.6480809 23.3943311,25.8807349 L23.9205776,25.0981714 L24.9730707,25.2250736 Z M24.2152757,20.38164 C24.2784252,20.38164 24.615223,20.4662414 24.5941732,20.4450911 C24.5520734,20.4239407 24.5941732,20.9315495 24.6994225,21.1853538 L24.2784252,22.0948196 C25.07832,21.1853538 26.3202618,21.2276546 27.4780042,21.1219027 L26.9307078,20.7834969 C27.0359571,20.4662414 26.9096579,20.212437 26.8675582,19.9374823 L24.2152757,20.38164 Z M26.1729128,17.6532428 C25.3309183,17.9070472 24.5099737,18.3512049 23.9626773,19.2606706 C24.3836746,17.7589947 24.467874,17.8224458 24.5941732,17.7378443 C25.1835693,17.4628895 25.6677161,17.6320925 26.1729128,17.6532428 Z" id="形状" fill="#C8C037"></path>
            <path d="M21.3076081,35.5693926 C20.2675094,36.7266633 17.9538205,35.4836689 16.0434352,34.8407407 C11.1613393,31.7118237 10.2061467,28.7543542 10.1424672,25.8611775 C9.88774912,21.7035754 11.1613393,19.3033103 12.7533271,18.724675 C11.6920019,20.7820451 11.2037924,24.4681665 11.6920019,27.2113266 C12.0953055,28.7329233 12.0953055,31.3046359 14.6212594,32.6976469 C15.8523967,33.4048679 15.5339991,33.9406413 16.3618327,34.6050004 C17.2745724,35.3336523 19.8429793,36.0194423 21.3076081,35.5693926 Z M22.8571429,16.4101336 C21.0953431,13.9027138 18.6330686,12.9597525 15.8523967,12.8525978 C16.4042857,12.6597194 16.9774013,12.5739956 17.5292904,12.2953934 C17.6566495,12.1453769 17.6141965,11.8882056 17.5717434,11.6310343 C14.897204,10.9238134 13.1990837,10.0451449 11.0552068,9.23076923 L16.8288158,10.6452112 C20.7344925,10.7952277 20.3948684,11.7810509 22.8571429,16.4101336 Z" id="形状" fill="#FCF6A0"></path>
            <path d="M25.0929839,14.9450549 C23.8038884,13.1143325 22.5570583,10.8837971 20.8453085,9.45288754 C16.7455621,7.62216507 12.6669484,6.25438391 7.91208791,5.01285948 L9.43364328,3.07692308 C14.4843618,4.23427636 19.2180896,6.14916998 23.465765,9.30558803 C24.20541,11.1152677 24.6703297,12.9249474 25.0929839,14.9450549 L25.0929839,14.9450549 Z M27.6923077,11.7044657 C27.6923077,11.7044657 26.9737954,10.0841711 26.6145393,9.47393032 C25.7903635,8.56909048 25.3888419,6.88566752 23.6982249,6.08604162 C24.2265427,6.23334113 24.5857988,6.06499883 25.6635672,7.03296703 L27.375317,10.2525134 L27.6923077,11.7044657 Z" id="形状" fill="#FCF6A0"></path>
            <path d="M28.3197145,14.5054945 C28.4850193,13.0771769 28.7949657,10.8174504 28.4436931,9.90076898 C27.4518644,8.53640586 26.4600357,7.10808822 25.468207,5.80767962 C25.3029022,5.6584524 25.1789236,5.42395249 25.0549451,5.27472527 C26.4600357,5.6584524 27.9271156,6.66040657 29.8901099,10.6255869 L28.3197145,14.5054945 Z" id="路径" fill="#FCF6A0"></path>
            <path d="M22.6221252,14.7943911 C22.0503351,14.3453831 21.5420772,12.7417831 20.6738033,12.3996818 C19.8690616,12.3355378 19.5725778,12.0789618 18.5137072,12.2927751 C18.8949006,12.1003431 19.2549166,11.8437671 19.6572875,11.7154791 C19.9325938,11.6513351 20.1867228,11.7154791 20.4620292,11.7582418 C20.5255614,11.7368604 20.5679162,11.6940978 20.5467388,11.6299538 C19.4878682,10.9671324 17.3065947,10.9671324 15.8241758,10.5822684 C17.5395462,10.6464124 19.4243359,10.5395057 20.7161581,10.9671324 C21.7538513,11.8865298 22.0926899,13.6397991 22.6221252,14.7943911 L22.6221252,14.7943911 Z M25.7563823,7.03296703 C25.9893338,7.05434837 27.2599786,9.08557506 27.3235108,9.4276764 C27.4293979,10.1760231 27.6835268,10.9885137 27.7682365,11.7796231 C27.5564623,11.0312764 27.3235108,10.2829297 27.0482044,9.5559644 C26.9634948,9.34215106 26.7517207,8.89314306 26.1587531,8.23032171 C25.8834468,7.75993238 25.8199145,7.3964497 25.7563823,7.03296703 L25.7563823,7.03296703 Z M30.0765744,18.1298792 L29.5259617,18.1298792 L30.1189292,18.3804417 L30.0765744,18.1298792 Z M26.3493498,17.5953458 C25.7987371,17.5312018 25.2481244,17.5098205 24.6975117,17.6381085 C24.4645601,17.9374472 24.4645601,18.2581672 24.3586731,18.5361245 C25.0151728,17.7877778 25.2904792,17.7450152 26.3493498,17.5953458 Z M33.8461538,21.4226045 C33.5496701,21.6577992 33.5073152,21.8929939 32.5966865,22.1709512 C31.9401867,22.3206206 31.5589933,22.0640446 31.2625095,21.7005619 C31.7284126,21.8288499 31.8131222,22.1923326 33.0625896,21.7860872 L33.8461538,21.4226045 L33.8461538,21.4226045 Z M31.1142676,21.5722739 C30.9024935,22.1923326 30.6483646,22.7910099 30.415413,23.3683059 C29.8436229,24.0525086 30.0977518,23.6676446 29.2294779,24.6939486 C29.5047843,24.2663219 29.8648003,23.8600766 30.0342196,23.4110686 C30.1612841,23.1117299 30.3307034,22.8123912 30.3942356,22.5558152 C30.1612841,22.4489086 29.7165584,22.4275272 29.6530262,22.4702899 C28.8906393,22.9192979 28.7635749,23.3896872 28.3188492,23.8600766 C28.6365104,23.3469246 28.9118167,22.7696286 29.2930102,22.2992392 C29.335365,22.2350952 29.6106713,22.2350952 29.7800906,22.1923326 C29.5047843,22.1495699 29.0177038,22.0426632 28.975349,22.0640446 C28.4882685,22.1923326 28.2129621,22.6199592 27.8317687,22.8979166 C28.1070751,22.5130526 28.3400266,22.1068072 28.6788652,21.7647059 C28.72122,21.7219432 29.6318488,21.8074685 30.0977518,21.9999006 L30.0977518,22.1923326 L30.3730582,22.2992392 L30.5848323,21.7860872 L31.1142676,21.5722739 Z M25.1210599,25.2498633 C24.9939954,25.2071006 23.9139474,25.0574313 23.9139474,25.1001939 C23.4903991,25.3995326 23.4480443,25.6774899 23.4480443,25.9340659 C24.1257215,25.2498633 24.1045441,25.2498633 25.1210599,25.2498633 L25.1210599,25.2498633 Z M24.2951408,20.3321565 C24.2951408,20.3321565 25.0787051,20.2252499 25.0575277,20.2893939 C24.9939954,20.5673512 25.1634147,21.2301725 25.1634147,21.1232659 L24.7186891,21.4867485 C25.6293178,21.0163592 26.6034788,21.1232659 27.5776398,21.0377405 C27.5776398,21.0377405 26.7517207,20.8025459 26.8152529,20.8025459 C27.0058496,20.7811645 26.7728981,19.9472925 26.7093658,19.9259112 C26.8576077,19.8831485 27.027027,19.8403859 27.1752689,19.7976232 C25.9893338,19.4982845 25.3116566,19.6693352 24.2951408,20.3321565 L24.2951408,20.3321565 Z" id="形状" fill="#000000"></path>
            <path d="M30.6093906,21.1126374 L30.4495504,21.1950549 C30.4295704,20.7005495 29.9100899,20.7417582 29.4905095,20.7417582 L29.1308691,20.6593407 C29.2307692,20.7623626 29.5704296,20.7623626 29.4305694,20.9684066 C29.3106893,21.0302198 29.2707293,21.2980769 29.2107892,21.5247253 L29.010989,21.5247253 C29.3506494,21.668956 29.6703297,21.771978 30.02997,21.9368132 L30.2497502,21.978022 L30.7692308,21.6895604 L30.6093906,21.1126374 L30.6093906,21.1126374 Z" id="路径" fill="#000000"></path>
            <path d="M25.6862128,20.5440074 C25.6038471,20.1030505 25.1714276,20.1581701 25.089062,20.4337682 C25.0066964,20.6542466 25.089062,22.1975957 25.1714276,21.9219976 C25.3155675,21.59128 25.5008901,21.4810407 25.7068042,21.4810407 C25.747987,21.2054427 25.7273956,20.8747251 25.6862128,20.5440074 Z M29.7839023,22.8039113 C29.8250851,22.7487917 29.9074508,21.9771172 29.8868594,21.7566388 C29.8250851,21.2054427 29.4338485,21.3156819 29.4338485,21.3156819 C29.3308914,21.4810407 29.2485258,22.3078349 29.2897086,22.5834329 C29.3103,22.859031 29.7221281,22.9141506 29.7839023,22.8039113 L29.7839023,22.8039113 Z" id="形状" fill="#FFFFFF"></path>
            <path d="M12.3321123,31.4098667 L12.5885226,31.4311693 C14.1269841,32.1767594 16.6697192,33.3057959 20.3663004,32.7093238 L20.9432234,33.6253345 C19.3192918,34.4135297 17.5671551,34.2218066 15.9432234,34.2857143 L12.3321123,31.4098667 Z M10.1098901,25.4238433 L10.8791209,28.6618346 C12.9517705,29.9612917 16.498779,31.4311693 19.4474969,31.3033539 L18.7851038,29.8121736 C12.6312576,28.5340192 12.1184371,26.8724184 10.1098901,25.4238433 Z M12.032967,18.7987426 C12.4175824,21.3124464 12.9090354,23.2083755 15.1098901,24.8060686 C16.456044,25.7646845 17.7808303,26.7233003 19.4047619,27.5114956 C19.4047619,27.5114956 19.2551893,28.2570857 19.1483516,28.2357831 C14.3192918,27.7032188 10.7936508,23.7196373 10.3663004,21.8876159 C10.7722833,20.5029486 11.3705739,19.629543 12.032967,18.7987426 L12.032967,18.7987426 Z M14.3406593,17.3714701 C14.981685,20.1621074 16.5201465,22.9740472 18.0372405,25.5303562 C18.5927961,26.2333411 18.7423687,26.5528797 19.5970696,26.9789312 C20.7509158,27.341075 21.5842491,27.2558647 22.4175824,27.191957 C22.1825397,26.7659055 21.990232,26.3185514 21.7124542,25.9138025 C19.8321123,24.4226223 20.6868132,23.0592575 21.1996337,22.2071545 C20.1526252,21.9515237 18.7637363,21.3763541 18.5714286,20.630764 C18.2722833,18.2448757 18.4432234,17.4992856 18.7423687,16.2637363 C17.3321123,16.5619723 15.8791209,16.8602083 14.3406593,17.3714701 L14.3406593,17.3714701 Z" id="形状" fill="#000000"></path>
            <path d="M9.2077093,2.63736264 C8.73809157,2.93475248 8.2898201,3.38083725 7.7988561,3.86940628 C6.9876982,4.69784943 6.45404168,5.50505044 5.64288378,6.09983013 C5.47211369,6.24852505 5.02384222,6.46094637 4.44749318,6.50343064 C4.16999179,6.52467277 3.99922171,6.56715703 3.50825771,6.50343064 C3.05998624,6.26976718 2.65440729,6.41846211 2.24882834,6.90703114 C1.80055686,7.5442951 1.22420783,8.75509661 0.98939896,9.54105549 C0.498434965,11.4740895 1.73651808,13.0884915 2.93190868,14.3205352 C3.99922171,15.3401575 4.59691701,15.9986636 5.02384222,16.9333174 C5.34403613,17.5493392 5.60019126,18.3777823 5.85634638,18.972562 C5.94173143,19.1637412 5.94173143,19.1637412 6.19788655,19.2062255 C6.75288933,19.3336783 7.52135471,19.3336783 8.20443505,19.3761625 C8.5032827,19.3761625 8.90886165,19.3761625 9.29309435,19.3336783 C9.82675086,19.2274676 10.4457924,19.1424991 10.9581027,18.9513199 C11.4704129,18.8238671 11.9186844,18.6539301 12.3242634,18.5052351 C12.2815708,18.6751722 11.8759919,18.8451092 11.7265681,19.0787727 C10.3390611,21.054291 9.95482843,22.8173879 10.2109836,25.578865 C10.3390611,26.8109087 10.6379088,27.830531 11.064834,28.9988483 C11.2569503,29.5299016 11.6838755,30.3795868 12.0681082,30.9318823 C13.2634988,32.6100107 15.9104351,34.7342239 19.6033382,35.562667 C20.2437261,35.6476355 20.9694989,35.6051513 21.6739255,35.4139721 C23.4883577,34.8616767 27.2239533,33.5659066 27.2239533,33.5659066 C27.2239533,33.5659066 23.9152829,33.8420543 22.4210446,33.6933594 C22.0795045,33.629633 21.6952718,33.629633 21.4391166,33.3747274 C21.3964241,33.3322432 21.2470003,33.0348533 21.3537316,33.0136112 C21.4818092,33.0136112 21.8660419,32.8649163 22.4423909,32.8011899 C21.2043078,32.6737371 21.225654,32.6737371 21.140269,32.4400736 C20.9694989,32.015231 20.7773826,31.6116305 20.56392,31.20803 C21.0975765,31.2505142 22.3143133,31.3142406 22.7198923,30.9106401 C22.7198923,30.9106401 22.0154657,30.9956087 21.3750779,30.9106401 C21.1616153,30.889398 20.7987288,30.7619452 20.6919975,30.719461 C20.4144961,30.6132503 20.1796873,30.570766 20.1156485,30.5070396 C20.0089172,30.2521341 19.9448784,30.1671655 19.8381471,29.8485335 C19.667377,29.4024488 19.667377,28.9138797 19.6246845,28.467795 C20.0302634,28.9776061 20.56392,29.4024488 21.2470003,29.6148701 C21.2470003,29.593628 22.1435432,29.9972285 22.8052773,29.7848072 L22.9333549,29.7423229 C22.9333549,29.763565 22.5064297,29.7848072 22.3356596,29.6998386 C21.0121914,29.1475432 20.8200751,28.6589742 20.6066125,28.4040686 L20.0302634,27.5543833 C20.2010335,27.2145092 20.3077648,27.1932671 20.5212274,27.1932671 C21.2043078,27.2782356 21.5245017,27.3207199 21.9300806,27.2357513 C22.207582,27.830531 22.2929671,28.4040686 22.9333549,28.8289112 C25.0893272,29.4661752 25.558945,28.637732 26.0926015,27.9154995 C27.6508785,29.0625747 30.1910835,29.4024488 31.9414769,27.9367417 C34.1828342,25.3664437 34.8872608,21.3091965 34.6951445,21.0755331 C34.4176431,20.6082062 34.0547567,20.1196372 33.7345628,20.1833636 C32.603211,20.4807534 32.197632,21.054291 31.0876265,20.9268382 C31.215704,20.9268382 31.4505129,20.9268382 31.4505129,20.905596 C31.5358979,19.9709422 31.4505129,19.5248575 31.4078204,19.4398889 C31.0662802,18.6964143 30.6180087,17.9104554 30.3191611,17.3369179 C30.233776,17.2094651 29.9989672,16.2960534 29.6147345,15.9349372 C29.4439644,15.7862423 29.0383854,15.425126 29.0383854,15.425126 L28.9956929,15.8287265 C28.9956929,15.8287265 29.166463,15.8499687 29.2091555,16.1048742 C29.4439644,17.039528 30.6180087,19.2699519 30.7033938,19.3761625 C31.130319,20.0559108 30.7460863,20.8843539 31.0662802,21.3516808 C31.0876265,21.4154072 31.706668,21.3516808 32.197632,21.3729229 C32.9874437,21.2029859 32.9447511,20.8631118 33.6278315,20.7993854 C34.0974492,20.7569011 34.1401417,21.6278285 34.1187955,21.6915549 C34.0334104,22.6474508 33.7345628,23.7307996 33.3076376,24.7504219 C32.3897484,26.5135188 31.3651278,28.1066787 29.8922359,28.3191001 C28.09915,28.637732 27.1812608,27.8517732 26.220679,27.3632041 L25.8577926,27.6818361 C24.5983632,28.9351219 23.104125,28.8076691 22.5064297,27.1932671 C22.207582,26.5560031 21.8020031,26.1736447 21.4604629,25.6425914 L19.667377,26.9383615 C19.5179532,27.2357513 19.3258368,27.7243204 19.1123742,28.2553737 C18.9629504,28.637732 18.8348729,29.274996 18.8348729,29.8060493 C18.600064,30.1884077 19.6246845,31.7815675 20.2864186,32.7374635 C20.4785349,33.0136112 20.8414214,33.5234224 20.8414214,33.5446645 C20.9694989,33.8845386 21.2470003,34.1819284 21.2683466,34.2031706 C22.4850834,35.7750883 19.7527621,35.4139721 19.176413,35.3077614 C18.0664075,35.1378244 16.9777482,34.6704975 15.9531277,34.0544757 C15.8890889,34.0119914 15.8250501,33.9907493 15.7823576,33.948265 C14.5656207,33.1835482 13.4556152,32.2064102 12.4950334,31.2505142 C11.9186844,30.6132503 11.3850279,29.2962381 10.9794489,28.3828264 C10.3817536,26.1524026 9.52790321,22.2863346 11.8546456,19.3549204 C12.0040694,19.1849834 12.1534933,18.9088356 12.3029171,18.8451092 C12.9859974,18.3777823 13.7544628,18.0591504 14.5442745,17.8892133 L14.4588894,17.3794021 C14.0533105,17.4643707 12.708496,17.9741818 12.3242634,18.165361 C11.4490667,18.4202666 10.7232938,18.6751722 9.61328826,18.9513199 C9.25040182,18.9938042 8.90886165,18.9938042 8.54597522,18.9513199 C7.75616358,18.8451092 6.3900029,18.9300778 6.30461786,18.8663514 C5.77096134,18.1228768 5.62153752,16.7633803 5.13057352,16.0411478 C4.83172587,15.6587895 4.51153196,15.3401575 4.16999179,15.0215255 C2.99594746,13.8532083 1.97132695,12.7273753 1.69382556,11.5165738 C1.62978678,11.1554575 1.43767043,10.7943413 1.54440174,9.75347681 C1.82190312,8.77633874 2.29152086,7.96913773 3.0813325,7.18317885 C3.89249041,7.20442099 4.70364831,7.20442099 5.34403613,7.33187378 C5.64288378,7.37435804 6.24057908,7.45932657 6.85962063,7.69299002 C8.43924392,8.26652758 10.5098312,9.24366564 10.5098312,9.24366565 C8.95155418,8.39398037 7.2011608,7.28938951 6.11250151,7.05572606 C5.94173143,7.03448393 5.85634638,6.9495154 5.7923076,6.82206261 C7.45731593,5.84492455 7.75616358,4.71909156 8.84482287,3.69946923 C9.33578687,3.48704791 9.52790321,3.38083725 9.95482843,3.33835299 C13.8611941,3.95437481 16.3373604,5.50505044 18.2798701,6.5459149 C19.0696817,6.97075754 19.7954546,7.28938951 20.4785349,7.69299002 C21.0762302,7.88416921 22.8906624,9.24366564 23.4243189,9.98714026 C23.9579754,11.1129732 24.3635544,12.3450169 24.7264408,13.5345763 C24.9825959,14.7453778 25.2174048,15.2339468 25.2174048,15.2339468 C25.2174048,15.2339468 25.0039422,14.2355666 25.0252884,14.0443874 C25.2600973,14.129356 25.7937538,14.299293 26.0072164,14.2780509 C26.0072164,14.2780509 25.0039422,13.7682397 24.8758646,13.322155 C24.4489394,11.87769 24.0433604,9.60478189 23.9152829,9.49857123 C23.595089,9.09497072 22.2716208,8.09659052 21.4604629,7.62926362 C21.1616153,7.45932657 20.9908452,7.33187378 20.9694989,7.26814738 C21.225654,7.0132418 21.545848,6.65212556 21.8446956,6.43970424 C22.122197,6.22728292 22.3783521,5.99361947 22.7625848,5.84492455 C24.4489394,5.0802078 25.4308674,6.14231439 25.64433,5.92989308 C25.64433,5.92989308 25.2814436,5.50505044 25.4522136,5.59001897 C25.6229837,5.67498749 26.1566402,5.78119815 26.220679,5.84492455 C26.8397206,6.33349358 28.4620364,8.07534839 29.4226181,9.944656 C29.657427,10.3907408 29.742812,10.6881306 29.6360807,11.240426 C29.5293494,11.7927215 29.4439644,12.0901113 29.3158868,12.4512276 C29.2091555,12.684891 28.6114602,14.3630194 28.6114602,14.5966829 C28.4833827,15.5100945 29.0170392,16.6571697 29.0170392,16.6571697 C29.0170392,16.3385377 28.9956929,16.1686006 29.0170392,15.9561793 L29.0597317,15.5525788 C29.0597317,15.5525788 29.0383854,15.4463681 29.0383854,15.4038839 C29.0597317,15.1277362 29.1237705,14.8940727 29.1451167,14.7453778 C29.3372331,13.5558184 29.6787733,12.684891 30.0630059,11.6227844 C30.1697372,11.3678788 30.3191611,11.2191839 30.3191611,11.0067626 C30.3191611,10.6456463 29.9989672,10.1783194 29.7641583,9.68975041 C29.5080032,9.15869712 29.2091555,8.62764382 28.8889616,8.11783266 C28.0564574,6.90703114 27.3306846,5.97237734 26.0285627,5.37759765 C25.6656763,5.20766059 24.2141305,5.05896567 23.7231665,5.1439342 C23.1254712,5.27138699 22.5918147,5.39883978 22.1862358,5.65374536 C21.5245017,6.078588 21.0121914,6.71585195 20.4144961,7.09821033 C19.091028,6.43970424 18.4506402,5.92989308 18.3225626,5.86616668 C17.532751,5.44132404 16.5721692,4.95275501 15.568895,4.48542811 C15.0352385,3.95437481 12.0040694,2.84978396 9.2077093,2.63736264 Z M26.2420253,27.3632041 C25.4308674,26.7259402 24.7264408,26.0674341 24.2781693,25.3876859 C24.1287455,26.1736447 23.595089,26.7471823 23.1681638,27.2994777 C23.0827787,27.4269305 23.0187399,27.6181097 23.4243189,28.1704051 C23.5310502,28.3191001 23.9366291,28.3403422 24.1927843,28.3403422 C23.9152829,28.1279209 23.5097039,27.9154995 23.4456651,27.7243204 C23.9366291,28.0429523 24.3635544,28.149163 24.7691333,28.0854366 C24.8545183,28.0854366 24.9825959,27.9792259 25.067981,27.830531 C25.238751,27.4481726 25.3881749,27.3632041 25.5375987,27.2569935 L25.8577926,27.660594 L26.2420253,27.3632041 L26.2420253,27.3632041 Z" id="形状" fill="#000000"></path>
        </g>
    </g>
</svg>