<?xml version="1.0" encoding="UTF-8"?>
<svg width="15px" height="15px" viewBox="0 0 15 15" version="1.1" xmlns="http://www.w3.org/2000/svg" xmlns:xlink="http://www.w3.org/1999/xlink">
    <title>编组 9</title>
    <g id="全局搜索" stroke="none" stroke-width="1" fill="none" fill-rule="evenodd">
        <g id="单元格工具栏" transform="translate(-32.000000, -111.000000)">
            <g id="编组-9" transform="translate(32.210062, 112.189613)">
                <path d="M8.19575004,0.266352201 C8.27669438,0.237347615 11.0856564,-0.72646619 12.9621437,1.20132091 C13.0951271,1.32319544 13.1962644,1.45730627 13.3067739,1.60369708 C13.4933804,2.00238262 13.4933804,2.10595651 13.523012,2.56995793 C13.5467198,3.36166385 13.3240694,4.37406119 12.855061,5.60714998 C12.5040412,6.47989311 12.0987744,7.27392802 11.6392606,7.98925471 C11.9149983,8.0499866 12.3035033,8.02784845 12.8047758,7.92284024 C13.3490249,7.80367124 13.7237508,8.13054212 13.5520579,8.60931075 C13.4592823,8.86801684 13.183549,9.02968911 12.9621437,9.19051969 C12.691185,9.35314816 12.4252516,9.47714777 12.1306339,9.55186153 C11.9188675,9.60556457 11.5540823,9.64693447 11.3447376,9.65987577 C11.1824819,9.66990613 10.9902701,9.65763877 10.7681023,9.6230737 C10.7097965,10.0496853 10.6726804,10.3497947 10.6567541,10.5234019 C10.6201414,10.9225051 10.5440163,11.4254159 10.5099226,11.6256715 C10.3582243,12.5167001 10.058524,12.9272035 9.74745332,13.134874 C9.26308921,13.4582349 8.69027824,13.6180632 8.02902042,13.6143587 C7.35316605,13.5646054 6.8743168,13.1712602 6.59247266,12.434323 C6.48028384,12.0609809 6.49151322,11.6415272 6.45192348,11.2528449 C6.4091817,10.7896305 6.4091817,10.3269488 6.45192348,9.86479962 C6.17173078,10.0558676 5.88182222,10.1679879 5.58219777,10.2011606 C5.19297706,10.2331325 4.59436063,10.2126203 4.14255122,9.94244036 L3.81815305,9.65987577 C3.16596695,10.1849445 2.56057448,10.1404606 2.00197564,9.52642405 C1.25235137,8.69531143 0.728651318,6.97789813 0.424438387,5.84967939 C0.143727382,4.65568313 0.0510465266,4.23069828 0.0109198035,3.65928159 C-0.05389838,2.56995793 0.187339236,2.03376885 0.274681373,1.76240282 C0.81555383,0.568607681 1.9138737,0.312044449 2.17358635,0.266352201 C2.63849793,0.159385463 4.0065403,0.0628999082 5.36013629,0.606740365 C6.09690451,0.15288948 7.04210909,0.0394267583 8.19575004,0.266352201 Z" id="路径-3" stroke="#000000" stroke-width="0.4"></path>
                <path d="M4.66567165,1.18984632 C3.05668111,0.778506699 1.94757349,0.902713767 1.33834879,1.56246752 C0.559034036,2.32942931 0.644512573,4.14101803 1.5947844,6.99723366 C2.26875815,8.97994257 2.90066495,9.64720072 3.49050478,8.99900813 C3.78910388,8.72060148 4.06408052,8.38377847 4.31543473,7.9885391 C3.84440599,7.53659988 3.60861701,6.97160364 3.60806779,6.2935504 C3.72485412,5.30770199 3.77908548,5.13360673 3.70231664,4.23879715 C3.66176939,2.82310252 4.18735286,1.74850183 4.5246136,1.35130465 C4.52453129,1.34950435 4.57155064,1.29568491 4.66567165,1.18984632 Z" id="路径-4" stroke="#40668C" stroke-width="0.4" fill="#40668C"></path>
                <path d="M11.0804182,7.67037261 L11.0556942,7.64988435 C11.111199,7.51659978 11.1541738,7.41332216 11.1846186,7.3400515 C11.5149856,6.6135187 11.3480899,5.94370315 11.2855243,5.56590798 C11.243814,5.31404454 11.243814,4.97889433 11.2855243,4.56045734 C11.3123876,4.31771776 11.3490869,4.09442006 11.3956223,3.89056426 C11.4654253,3.58478056 11.2965481,3.21359934 11.2855243,3.19589186 C10.7816763,1.99552535 10.0068204,1.16563954 8.96095662,0.706234443 C10.6409112,0.436843831 11.9012514,0.841967954 12.7419774,1.92160681 C12.985809,2.28545916 12.8753306,3.2936041 12.6102041,4.27426027 C12.5122918,4.63642057 12.324246,5.16528988 12.0460666,5.86086822 C11.7591562,6.49618172 11.6015256,6.82730415 11.5731748,6.85423548 C11.5133086,6.97608197 11.3490564,7.24812768 11.0804182,7.67037261 Z" id="路径-8" stroke="#40668C" stroke-width="0.1" fill="#40668C"></path>
                <path d="M4.34724962,3.77687633 C4.56984006,1.95392144 5.35184283,0.95944705 6.69325792,0.793453161 C7.97523623,0.666402421 9.05664514,1.06907679 9.93748465,2.00147626 C10.3333967,2.40125949 10.6315554,2.86532715 10.8319608,3.39367927 C10.0095988,3.32595377 9.4843484,3.53078791 9.25620948,4.0081817 C9.00915093,4.50487928 9.16726139,5.28290459 9.73054086,6.34225762 L10.1205517,7.0262996 C10.1861333,7.13914613 10.2321713,7.23584068 10.2586657,7.31638325 C10.3494895,7.51949426 10.5082022,7.75414686 10.7348038,8.02034104 C10.4419873,8.13394972 10.2669512,8.32330494 10.2096954,8.58840669 C10.1179067,9.07116044 10.2312952,8.73946083 10.1205517,9.55019129 C10.0098082,10.3609217 9.91242086,11.5230476 9.73054086,12.0808474 C9.58119419,12.5986326 9.1623088,12.8697225 8.36476098,12.9787179 C8.22171697,12.9982668 7.66622459,13.0786935 7.35018026,12.5446802 C7.18147591,12.306818 7.08448564,11.9198211 7.05920945,11.3836895 C7.00944037,10.1887148 7.00167889,9.31504564 7.03592502,8.76268208 C7.00111432,8.51153958 6.88689195,8.31263555 6.69325792,8.16596997 C6.52121634,8.05653569 6.34292979,8.00799271 6.15839826,8.02034104 C6.27111048,7.67290525 6.37868669,7.40351991 6.48112689,7.21218503 C6.56910383,7.08528793 6.82926618,6.43063701 6.83803712,6.00381625 C6.86112367,5.75469411 6.88795911,4.94983042 6.6490424,4.15684617 C6.31474161,3.37779661 5.54747735,3.25114 4.34724962,3.77687633 Z" id="路径-9" stroke="#40668C" stroke-width="0.1" fill="#40668C"></path>
                <path d="M4.32354658,4.37412802 C4.83899527,4.02898881 5.33338661,3.89594999 5.8067206,3.97501155 C6.03354831,4.03395372 6.17694006,4.23491624 6.23689586,4.57789912 C6.27596918,4.76440573 6.30753347,4.96858391 6.33158872,5.19043366 C6.3629306,5.6701961 6.35514108,6.00261667 6.30822018,6.18769538 C6.27708279,6.38189098 6.19073555,6.63403431 6.04917844,6.94412539 C5.86519271,7.33149613 5.74070335,7.6616285 5.67571037,7.93452251 C5.00779624,7.87981119 4.55707498,7.51556987 4.32354658,6.84179856 C4.24611443,6.59845218 4.23678217,6.32442014 4.29554978,6.01970245 C4.3543174,5.71498477 4.36364967,5.16645996 4.32354658,4.37412802 Z" id="路径-12" stroke="#40668C" stroke-width="0.1" fill="#40668C"></path>
                <path d="M9.82665569,4.06648149 C10.0155951,3.89970547 10.3714865,3.84595556 10.8943298,3.90523176 C10.8941049,4.11184661 10.8610396,4.38946506 10.7951339,4.73808712 C10.7317179,5.09065135 10.8151931,5.81771836 10.8545365,5.99359892 C10.9052353,6.55377613 10.8734611,6.94971945 10.7592138,7.18142886 C10.670921,7.0139556 10.5447965,6.7832087 10.3808402,6.48918815 C10.1349058,6.04815732 9.98540171,5.73613947 9.90259595,5.53682876 C9.58708038,4.8076307 9.56176696,4.31751494 9.82665569,4.06648149 Z" id="路径-14" stroke="#40668C" stroke-width="0.1" fill="#40668C"></path>
                <path d="M5.38398086,4.3318373 C5.45765053,4.43388451 5.53382813,4.52296174 5.66022979,4.53659881 C5.81127416,4.54070342 5.88483344,4.51548601 5.9795786,4.40983546 C6.04274204,4.33940177 6.02694284,4.28090966 5.93218099,4.23435915 C5.76273977,4.16442844 5.59961886,4.1481969 5.44281827,4.18566454 C5.33854162,4.20573152 5.36042582,4.30197919 5.38398086,4.3318373 Z" id="路径-15" stroke="#FFFFFF" stroke-width="0.1" fill="#FFFFFF"></path>
                <path d="M10.2323708,4.43164456 C10.1482653,4.43058487 10.05536,4.39520689 9.95365487,4.32551063 C9.88754267,4.27081136 9.86841578,4.21853356 9.8962742,4.16867721 C9.99211036,4.0144099 10.2690598,3.9987036 10.3986426,3.9987036 C10.5003592,3.99999154 10.7185293,4.09753073 10.5035077,4.29716528 C10.4430839,4.36287916 10.3402624,4.43164456 10.2323708,4.43164456 Z" id="路径-16" fill="#FFFFFF"></path>
                <path d="M6.46208059,8.63907206 C6.55973143,8.79952348 6.55300437,8.93128852 6.44189941,9.03436721 C6.3301736,9.1731869 6.20314752,9.31236852 5.90287935,9.45390451 C5.51173221,9.63193334 4.93352626,9.56362781 4.75588905,9.50364936 C4.68189091,9.48640391 4.624884,9.46982229 4.5848683,9.45390451 C4.68560015,9.41796228 4.79880296,9.38954731 4.92447673,9.36865962 C5.44263088,9.29034818 5.69993507,9.08026298 5.80650626,8.92581284 C5.87755373,8.82284609 5.99404568,8.69072389 6.15598212,8.52944625 C6.21116156,8.49265985 6.27597283,8.49265985 6.35041593,8.52944625 C6.39692114,8.5599384 6.4341427,8.59648033 6.46208059,8.63907206 Z" id="路径-17" stroke="#40668C" stroke-width="0.1" fill="#40668C"></path>
                <path d="M10.8319608,8.51495517 C10.9071313,8.48580166 10.9783846,8.46473031 11.0457207,8.4517411 C11.3417582,8.66751657 11.879942,8.71543964 12.6602721,8.59551031 C12.3591613,8.80008144 12.0702086,8.91935957 11.793414,8.95334471 C11.4637557,9.01274956 10.8955623,9.05367148 10.681687,8.95334471 C10.6692597,8.74192767 10.7193509,8.59579782 10.8319608,8.51495517 Z" id="路径-18" stroke="#40668C" stroke-width="0.1" fill="#40668C"></path>
                <path d="M3.34119338,9.78303239 C3.48039262,9.72627392 3.63162473,9.60060709 3.79488971,9.40603191 C3.90515707,9.28898474 4.03243085,9.13826124 4.19189845,8.96254437 C4.32215306,8.8190172 4.55154681,8.57241688 4.88007967,8.22274343 C5.11838351,8.35141916 5.35355887,8.41575703 5.58560578,8.41575703 L5.40000214,8.63733264 C5.30641669,8.75804909 5.11279369,8.842187 4.81913315,8.88974639 C4.45287764,8.95192937 4.20994932,9.04102925 4.09034821,9.15704603 C3.91918657,9.36603964 3.93299737,9.55984179 4.13178063,9.73845246 L3.34119338,9.78303239 Z" id="路径-22" stroke="#000000" stroke-width="0.1" fill="#000000"></path>
            </g>
        </g>
    </g>
</svg>