<?xml version="1.0" encoding="UTF-8"?>
<svg width="10px" height="10px" viewBox="0 0 10 10" version="1.1" xmlns="http://www.w3.org/2000/svg" xmlns:xlink="http://www.w3.org/1999/xlink">
    <title>编组 7备份</title>
    <defs>
        <filter color-interpolation-filters="auto" id="filter-1">
            <feColorMatrix in="SourceGraphic" type="matrix" values="0 0 0 0 0.552941 0 0 0 0 0.600000 0 0 0 0 0.643137 0 0 0 1.000000 0"></feColorMatrix>
        </filter>
    </defs>
    <g id="页面-1" stroke="none" stroke-width="1" fill="none" fill-rule="evenodd">
        <g id="团队页" transform="translate(-219.000000, -21.000000)">
            <g id="编组-3" transform="translate(219.000000, 21.000000)">
                <g filter="url(#filter-1)" id="编辑-(1)">
                    <g>
                        <rect id="矩形" fill="#000000" fill-rule="nonzero" opacity="0" x="0" y="0" width="10" height="10"></rect>
                        <path d="M8.7642812,1.01029473 C8.87463686,1.03918031 8.96081969,1.12536314 8.98970527,1.2357188 C9.01859084,1.34607446 8.98568388,1.46342903 8.90363221,1.54267718 L4.44022265,6.00619195 C4.31694866,6.12946593 4.11708204,6.12946593 3.99380805,6.00619195 C3.87053407,5.88291796 3.87053407,5.68305134 3.99380805,5.55977735 L8.45732282,1.096473 C8.53657097,1.01431612 8.65392554,0.981409161 8.7642812,1.01029473 Z M8.36484145,4.37067109 C8.36484145,4.1963501 8.50615653,4.05503503 8.68047751,4.05503503 C8.8547985,4.05503503 8.99611358,4.1963501 8.99611358,4.37067109 L8.99611358,7.84266777 C8.99611358,8.4818308 8.47794438,9 7.83878135,9 L2.15733223,9 C1.5181692,9 1,8.4818308 1,7.84266777 L1,2.16121865 C1,1.52205562 1.5181692,1.00388642 2.15733223,1.00388642 L5.52411689,1.00388642 C5.69843787,1.00388642 5.83975295,1.1452015 5.83975295,1.31952249 C5.83975295,1.49384347 5.69843787,1.63515855 5.52411689,1.63515855 L2.15733223,1.63515855 C1.86679725,1.63515855 1.63127212,1.87068368 1.63127212,2.16121865 L1.63127212,7.84266777 C1.63127212,8.13320275 1.86679725,8.36872788 2.15733223,8.36872788 L7.83878135,8.36872788 C8.12931632,8.36872788 8.36484145,8.13320275 8.36484145,7.84266777 L8.36484145,4.37067109 Z" id="形状" fill="#8D99A4" fill-rule="nonzero"></path>
                    </g>
                </g>
                <rect id="矩形" fill-opacity="0" fill="#D8D8D8" x="0" y="0" width="10" height="10"></rect>
            </g>
        </g>
    </g>
</svg>