<?xml version="1.0" encoding="UTF-8"?>
<svg width="16px" height="16px" viewBox="0 0 16 16" version="1.1" xmlns="http://www.w3.org/2000/svg" xmlns:xlink="http://www.w3.org/1999/xlink">
    <title>矩形</title>
    <g id="页面-1" stroke="none" stroke-width="1" fill="none" fill-rule="evenodd">
        <g id="个人账户" transform="translate(-70.000000, -419.000000)">
            <g id="编组-5" transform="translate(70.000000, 419.000000)">
                <rect id="矩形" fill-opacity="0" fill="#D8D8D8" x="0" y="0" width="16" height="16"></rect>
                <g id="编组" transform="translate(1.000000, 3.000000)">
                    <rect id="矩形" fill="#3793EF" x="0" y="0" width="14" height="10" rx="1"></rect>
                    <path d="M1,7.10542736e-15 L13,7.10542736e-15 C13.5522847,6.89295199e-15 14,0.44771525 14,1 L14,1.68103209 L14,1.68103209 L7,6.1943069 L0,1.68103209 L0,1 C-1.78657678e-16,0.44771525 0.44771525,7.09585812e-15 1,7.10542736e-15 Z" id="矩形备份-2" fill="#FFFFFF"></path>
                    <path d="M0.991911262,0 L13.0080887,0 C13.5559062,1.50584265e-15 14,0.444093799 14,0.991911262 L14,0.991911262 L14,0.991911262 L7,5.5 L0,0.991911262 C-6.70882903e-17,0.444093799 0.444093799,2.11654738e-16 0.991911262,0 Z" id="矩形备份" fill="#B4DAFF"></path>
                </g>
            </g>
        </g>
    </g>
</svg>