<?xml version="1.0" standalone="no"?><!DOCTYPE svg PUBLIC "-//W3C//DTD SVG 1.1//EN" "http://www.w3.org/Graphics/SVG/1.1/DTD/svg11.dtd"><svg t="1672283484099" class="icon" viewBox="0 0 1024 1024" version="1.1" xmlns="http://www.w3.org/2000/svg" p-id="7243" xmlns:xlink="http://www.w3.org/1999/xlink" width="32" height="32"><path d="M690.102857 845.165714H545.401905v-71.923809a60.952381 60.952381 0 0 0-121.904762 0v71.923809h-145.066667a87.893333 87.893333 0 0 1-87.649524-87.771428V612.693333h71.68a60.952381 60.952381 0 1 0 0-121.904762h-71.558095v-145.066666a87.649524 87.649524 0 0 1 87.405714-87.649524h102.278096v-23.04a103.619048 103.619048 0 1 1 207.238095 0v23.04h102.278095a87.893333 87.893333 0 0 1 87.649524 87.771429v102.278095h23.161905a103.497143 103.497143 0 0 1 0 207.238095h-23.161905v102.278095a87.893333 87.893333 0 0 1-87.649524 87.527619z m-95.939047-48.761904h95.939047a39.009524 39.009524 0 0 0 38.887619-39.009524V606.354286h71.92381a54.735238 54.735238 0 0 0 0-109.714286h-71.92381V345.84381a38.887619 38.887619 0 0 0-38.887619-39.009524H539.062857v-71.801905a54.857143 54.857143 0 1 0-109.714286 0v71.801905H278.430476a38.887619 38.887619 0 0 0-38.643809 39.009524v95.939047h22.918095a109.714286 109.714286 0 1 1 0 219.428572h-23.04v95.939047a39.009524 39.009524 0 0 0 38.887619 39.009524h95.939048v-23.161905a109.714286 109.714286 0 0 1 219.428571 0z" fill="#707070" p-id="7244"></path></svg>