<?xml version="1.0" standalone="no"?><!DOCTYPE svg PUBLIC "-//W3C//DTD SVG 1.1//EN" "http://www.w3.org/Graphics/SVG/1.1/DTD/svg11.dtd"><svg t="1668754671346" class="icon" viewBox="0 0 1024 1024" version="1.1" xmlns="http://www.w3.org/2000/svg" p-id="2674" width="32" height="32" xmlns:xlink="http://www.w3.org/1999/xlink"><path d="M512 668.224l369.696-184.832a32 32 0 0 1 28.608 57.216l-384 192a32 32 0 0 1-28.608 0l-384-192a32 32 0 0 1 28.608-57.216L512 668.224z" p-id="2675"></path><path d="M512 860.224l369.696-184.832a32 32 0 0 1 28.608 57.216l-384 192a32 32 0 0 1-28.608 0l-384-192a32 32 0 0 1 28.608-57.216L512 860.224zM113.696 348.64a32 32 0 0 1 0-57.28l384-192a32 32 0 0 1 28.608 0l384 192a32 32 0 0 1 0 57.28l-384 192a32 32 0 0 1-28.608 0l-384-192zM512 476.224L824.448 320 512 163.776 199.552 320 512 476.224z" p-id="2676"></path></svg>