<?xml version="1.0" encoding="UTF-8"?>
<svg width="10px" height="10px" viewBox="0 0 10 10" version="1.1" xmlns="http://www.w3.org/2000/svg" xmlns:xlink="http://www.w3.org/1999/xlink">
    <title>文件备份 3</title>
    <defs>
        <filter color-interpolation-filters="auto" id="filter-1">
            <feColorMatrix in="SourceGraphic" type="matrix" values="0 0 0 0 0.552941 0 0 0 0 0.600000 0 0 0 0 0.643137 0 0 0 1.000000 0"></feColorMatrix>
        </filter>
    </defs>
    <g id="全局搜索" stroke="none" stroke-width="1" fill="none" fill-rule="evenodd">
        <g id="文件备份-3" transform="translate(-315.000000, -260.000000)" filter="url(#filter-1)">
            <g transform="translate(315.000000, 260.000000)">
                <rect id="矩形" fill="#000000" fill-rule="nonzero" opacity="0" x="0" y="0" width="10" height="10"></rect>
                <path d="M6.78595439,0 L6.78595439,2.5 L9.16666667,2.5 L6.78595439,0 Z M6.19056623,0 L2.02389956,0 C1.36641604,0.000121790322 0.833449323,0.559743898 0.833333333,1.2501103 L0.833333333,8.7498897 C0.833449323,9.4402561 1.36641604,9.99987821 2.02389956,10 L7.97589035,10 C8.63345592,10 9.16655065,9.44034224 9.16666667,8.7498897 L9.16666667,3.12494485 L6.19056623,3.12494485 L6.19056623,0 Z M6.78595439,8.12494485 L3.21446579,8.12494485 L3.21446579,7.5 L6.78595439,7.5 L6.78595439,8.12494485 L6.78595439,8.12494485 Z M6.78595439,6.2501103 L3.21446579,6.2501103 L3.21446579,5.62516545 L6.78595439,5.62516545 L6.78595439,6.2501103 Z M6.78595439,3.7498897 L6.78595439,4.37483455 L3.21446579,4.37483455 L3.21446579,3.7498897 L6.78595439,3.7498897 Z" id="形状" fill="#203646" fill-rule="nonzero"></path>
            </g>
        </g>
    </g>
</svg>