<?xml version="1.0" encoding="UTF-8"?>
<svg width="10px" height="10px" viewBox="0 0 10 10" version="1.1" xmlns="http://www.w3.org/2000/svg" xmlns:xlink="http://www.w3.org/1999/xlink">
    <title>24gf-folderOpen</title>
    <defs>
        <filter color-interpolation-filters="auto" id="filter-1">
            <feColorMatrix in="SourceGraphic" type="matrix" values="0 0 0 0 0.552941 0 0 0 0 0.600000 0 0 0 0 0.643137 0 0 0 1.000000 0"></feColorMatrix>
        </filter>
    </defs>
    <g id="全局搜索" stroke="none" stroke-width="1" fill="none" fill-rule="evenodd">
        <g id="24gf-folderOpen" transform="translate(-311.000000, -260.000000)" filter="url(#filter-1)">
            <g transform="translate(311.000000, 260.000000)">
                <rect id="矩形" fill="#000000" fill-rule="nonzero" opacity="0" x="0" y="0" width="10" height="10"></rect>
                <path d="M0.800287728,4.22441024 L0,7.16105353 L0,1.52631947 C0.000326044734,1.2357787 0.235588431,1.00033024 0.525899604,1.00000196 L3.0247116,1.00000196 C3.16426578,0.999620135 3.29817366,1.05512558 3.39658835,1.1541486 L4.4738937,2.23230597 C4.49355085,2.25213614 4.520332,2.26325045 4.54824275,2.26316121 L8.30921381,2.26316121 C8.59952498,2.26348752 8.83478736,2.49893597 8.83511341,2.78947674 L8.83511341,3.52631848 L1.71351239,3.52631848 C1.28687939,3.52701292 0.91319871,3.81266377 0.800287728,4.22441024 Z M9.8917772,4.15421291 C9.79268132,4.02335931 9.63787707,3.94674882 9.47381848,3.94736715 L1.71351239,3.94736715 C1.47640576,3.94782091 1.26878349,4.10666259 1.20615075,4.33552861 L0.116092335,8.33552665 C0.0730863367,8.49373876 0.106211844,8.66297157 0.205686856,8.79325042 C0.305161868,8.92352928 0.459621627,9 0.623453988,9 L8.38376007,9 C8.62086671,8.99955 8.82848897,8.84070831 8.89112172,8.6118423 L9.98118013,4.61184426 C10.0247878,4.45370234 9.99165826,4.28424497 9.89171146,4.15421291 L9.8917772,4.15421291 Z" id="形状" fill="#5C5C66" fill-rule="nonzero"></path>
            </g>
        </g>
    </g>
</svg>