<?xml version="1.0" encoding="UTF-8"?>
<svg width="12px" height="12px" viewBox="0 0 12 12" version="1.1" xmlns="http://www.w3.org/2000/svg" xmlns:xlink="http://www.w3.org/1999/xlink">
    <title>点击</title>
    <defs>
        <filter color-interpolation-filters="auto" id="filter-1">
            <feColorMatrix in="SourceGraphic" type="matrix" values="0 0 0 0 1.000000 0 0 0 0 1.000000 0 0 0 0 1.000000 0 0 0 1.000000 0"></feColorMatrix>
        </filter>
    </defs>
    <g id="页面-1" stroke="none" stroke-width="1" fill="none" fill-rule="evenodd">
        <g id="点击" transform="translate(-433.000000, -81.000000)" filter="url(#filter-1)">
            <g transform="translate(433.000000, 81.000000)">
                <rect id="矩形" fill="#000000" fill-rule="nonzero" opacity="0" x="0" y="0" width="12" height="12"></rect>
                <path d="M9.11658968,5.45611784 L9.09235671,5.45611784 C8.91325017,5.45611784 8.76625733,5.50456882 8.62467584,5.58707455 C8.50078171,5.24681629 8.18563501,5.00171331 7.77973579,5.00171331 C7.60061744,5.00171331 7.42955704,5.05015316 7.28798737,5.13265889 C7.16408142,4.79241176 6.84879294,4.54729765 6.44288191,4.54729765 C6.28457011,4.54729765 6.13745912,4.58464551 6.00722022,4.65026293 L6.00722022,3.77479659 C6.00722022,3.29795219 5.62419523,2.91140128 5.11410963,2.91140128 C4.60401221,2.91140128 4.19051582,3.29795219 4.19051582,3.77479659 L4.19051582,7.12666973 L3.62941221,6.60049545 C3.26871793,6.26333005 2.63034294,6.31132488 2.32324239,6.60049545 C2.01614184,6.88966602 1.81474002,7.47170077 2.25450158,7.88578697 L4.83382957,10.2986012 C4.88704521,10.3483427 4.94554224,10.3898292 5.00707577,10.4249075 C5.47735598,10.7861482 6.01623522,11 7.15575171,11 C9.75892276,11 10,9.67758313 10,8.04630378 L10,6.31950203 C10,5.84266875 9.6266871,5.45611784 9.11658968,5.45611784 Z M9.5138638,8.04628153 C9.5138638,9.42659482 9.50685739,10.5455621 7.15572808,10.5455621 C6.15973076,10.5455621 5.56177555,10.3364497 5.10879279,9.91299591 L2.66697004,7.62871309 C2.4509292,7.42528574 2.50525547,7.16518576 2.68211712,6.99865012 C2.85896696,6.83212561 3.18356582,6.82636267 3.35442536,6.98606733 C3.35442536,6.98606733 3.78283252,7.38708122 4.1519274,7.73257953 C4.43125042,7.99404793 4.67661658,8.2237089 4.67661658,8.2237089 L4.67661658,3.86567972 C4.67661658,3.6398125 4.87248889,3.45671119 5.11410963,3.45671119 C5.35571855,3.45671119 5.52111947,3.63982363 5.52111947,3.86567972 L5.52111947,6.63760968 L5.52602277,6.63760968 C5.52283267,6.65229516 5.52111947,6.66748129 5.52111947,6.68305681 C5.52111947,6.80852871 5.62993741,6.9102702 5.76416985,6.9102702 C5.89839046,6.9102702 6.00720841,6.80853983 6.00720841,6.68305681 C6.00720841,6.66748129 6.00550702,6.65229516 6.0023051,6.63760968 L6.00720841,6.63760968 L6.00720841,5.50156497 C6.00720841,5.27569775 6.18201422,5.09258531 6.42363496,5.09258531 C6.42363496,5.09258531 6.85172311,5.08713388 6.85172311,5.50156497 L6.85172311,7.00111995 L6.85662642,7.00111995 C6.85343631,7.01581656 6.85172311,7.03100269 6.85172311,7.04656708 C6.85172311,7.17205011 6.96054106,7.27378047 7.09476167,7.27378047 C7.22899411,7.27378047 7.33781205,7.17206123 7.33781205,7.04656708 C7.33781205,7.03100269 7.33611066,7.01581656 7.33290875,7.00111995 L7.33781205,7.00111995 L7.33781205,5.95598063 C7.33781205,5.73010228 7.50982948,5.54698985 7.75146203,5.54698985 C7.75146203,5.54698985 8.18842339,5.57261157 8.18842339,5.95598063 L8.18842339,7.27376935 L8.1933267,7.27376935 C8.19014841,7.28845483 8.18842339,7.30365209 8.18842339,7.31921648 C8.18842339,7.4446995 8.29724134,7.54642987 8.43147377,7.54642987 C8.5657062,7.54642987 8.66842751,7.44471063 8.66842751,7.31921648 C8.66842751,7.30365209 8.66682064,7.28845483 8.66379595,7.27376935 L8.66842751,7.27376935 L8.66842751,6.37403858 C8.66842751,6.14817136 8.84866831,5.96505893 9.09027724,5.96505893 C9.09027724,5.96505893 9.5138638,5.94892714 9.5138638,6.37403858 C9.5138638,6.37403858 9.5138638,7.67876612 9.5138638,8.04628153 Z M3.82962069,5.06209068 L3.82962069,4.29854554 C3.75245565,4.13565903 3.70863309,3.95569508 3.70863309,3.76581842 C3.70863309,3.04225786 4.33156562,2.45569508 5.09999047,2.45569508 C5.86841531,2.45569508 6.49134784,3.04225786 6.49134784,3.76581842 C6.49134784,3.86465619 6.47894189,3.96061249 6.45667025,4.05307542 C6.63167692,4.05950589 6.78957518,4.12790465 6.9045134,4.23772316 C6.9490685,4.08733043 6.97528642,3.92971734 6.97528642,3.76581842 C6.97528642,2.79059091 6.13567503,2 5.09997865,2 C4.06428228,2 3.22467088,2.79059091 3.22467088,3.76581842 C3.22467088,4.27892039 3.45851723,4.73945501 3.82962069,5.06209068 Z" id="形状" fill="#000000" fill-rule="nonzero"></path>
            </g>
        </g>
    </g>
</svg>