<?xml version="1.0" encoding="UTF-8"?>
<svg width="21px" height="21px" viewBox="0 0 21 21" version="1.1" xmlns="http://www.w3.org/2000/svg" xmlns:xlink="http://www.w3.org/1999/xlink">
    <title>历史记录</title>
    <defs>
        <filter color-interpolation-filters="auto" id="filter-1">
            <feColorMatrix in="SourceGraphic" type="matrix" values="0 0 0 0 0.552941 0 0 0 0 0.600000 0 0 0 0 0.643137 0 0 0 1.000000 0"></feColorMatrix>
        </filter>
    </defs>
    <g id="全局搜索" stroke="none" stroke-width="1" fill="none" fill-rule="evenodd">
        <g id="历史记录" transform="translate(-1406.000000, -233.000000)" filter="url(#filter-1)">
            <g transform="translate(1406.000000, 233.000000)">
                <rect id="矩形" fill="#000000" fill-rule="nonzero" opacity="0" x="0" y="0" width="21" height="21"></rect>
                <path d="M10.5,2 C10.155841,2 9.87614679,2.27969419 9.87614679,2.62385321 C9.87614679,2.96801223 10.155841,3.24770642 10.5,3.24770642 C14.4988991,3.24770642 17.7522936,6.50110092 17.7522936,10.5 C17.7522936,14.4988991 14.4988991,17.7522936 10.5,17.7522936 C6.50110092,17.7522936 3.24770642,14.4988991 3.24770642,10.5 C3.24770642,8.32691131 4.19908257,6.31602446 5.83357798,4.94770642 L5.83357798,6.31914373 C5.83357798,6.66330275 6.11327217,6.94299694 6.45743119,6.94299694 C6.80159021,6.94299694 7.0812844,6.66330275 7.0812844,6.31914373 L7.0812844,3.34232416 C7.0812844,2.99816514 6.80159021,2.71847095 6.45743119,2.71847095 L3.60850153,2.71847095 C3.26434251,2.71847095 2.98464832,2.99816514 2.98464832,3.34232416 C2.98464832,3.68648318 3.26434251,3.96617737 3.60850153,3.96617737 L5.06207951,3.96617737 C3.1270948,5.57051988 2,7.93908257 2,10.5 C2,15.1872171 5.81278287,19 10.5,19 C15.1872171,19 19,15.1872171 19,10.5 C19,5.81278287 15.1861774,2 10.5,2 Z" id="路径" fill="#6FB1F9" fill-rule="nonzero"></path>
                <path d="M9.65259952,12 L13.3474005,12 C13.7074179,12 14,11.6866263 14,11.3010252 C14,10.915424 13.7074179,10.6020503 13.3474005,10.6020503 L10.305199,10.6020503 L10.305199,7.69897484 C10.305199,7.31337372 10.0126169,7 9.65259952,7 C9.29258212,7 9,7.31337372 9,7.69897484 L9,11.3010252 C9,11.6877912 9.29258212,12 9.65259952,12 Z" id="路径" fill="#6FB1F9" fill-rule="nonzero"></path>
            </g>
        </g>
    </g>
</svg>
