<?xml version="1.0" encoding="UTF-8"?>
<svg width="140px" height="140px" viewBox="0 0 140 140" version="1.1" xmlns="http://www.w3.org/2000/svg" xmlns:xlink="http://www.w3.org/1999/xlink">
    <title>用户备份 4</title>
    <g id="用户备份-4" stroke="none" stroke-width="1" fill="none" fill-rule="evenodd">
        <rect fill="#3495F0" x="0" y="0" width="140" height="140"></rect>
        <g id="编组" transform="translate(5.000000, 18.905983)" fill="#FFFFFF">
            <ellipse id="椭圆形备份-3" cx="65" cy="26.1580947" rx="26.2977099" ry="26.1580947"></ellipse>
            <path d="M130,109.56945 L130,162.453948 C130,165.174253 127.825212,167.39543 125.105513,167.452835 L5.10551271,169.985704 C2.34470388,170.043977 0.059386478,167.853139 0.00111341717,165.09233 L0.000278362042,165.039577 L0.000278362042,165.039577 L0,110.941421 C-3.55047959e-15,81.9495545 20.8573124,57.8291748 48.3853339,52.7668848 C53.143398,56.5757485 58.6438648,58.748438 64.5038168,58.748438 C70.5228948,58.748438 76.162699,56.4561484 81.0090319,52.456261 C108.74882,56.6870157 130,80.6464933 130,109.56945 Z" id="形状结合备份"></path>
        </g>
    </g>
</svg>