<?xml version="1.0" encoding="UTF-8"?>
<svg width="14px" height="14px" viewBox="0 0 14 14" version="1.1" xmlns="http://www.w3.org/2000/svg" xmlns:xlink="http://www.w3.org/1999/xlink">
    <title>企业云盘</title>
    <defs>
        <filter color-interpolation-filters="auto" id="filter-1">
            <feColorMatrix in="SourceGraphic" type="matrix" values="0 0 0 0 0.552941 0 0 0 0 0.600000 0 0 0 0 0.643137 0 0 0 1.000000 0"></feColorMatrix>
        </filter>
    </defs>
    <g id="全局搜索" stroke="none" stroke-width="1" fill="none" fill-rule="evenodd">
        <g transform="translate(-116.000000, -429.000000)" id="企业云盘" filter="url(#filter-1)">
            <g transform="translate(116.000000, 429.000000)">
                <rect id="矩形" fill="#000000" fill-rule="nonzero" opacity="0" x="0" y="0" width="14" height="14"></rect>
                <path d="M10.4218202,3.47810967 C10.0740093,3.03092414 9.61026133,2.64998832 9.09682609,2.38498949 C8.56682842,2.11999066 7.98714348,1.98749124 7.37433368,1.98749124 C6.34746321,1.98749124 5.38684244,2.38498949 4.65809565,3.11373628 C3.96247372,3.80935821 3.56497547,4.73685412 3.53185062,5.73059974 C2.80310383,5.73059974 2.1074819,6.012161 1.59404666,6.54215866 C1.08061142,7.0555939 0.782487736,7.75121583 0.782487736,8.47996262 C0.782487736,9.20870941 1.06404899,9.90433134 1.59404666,10.4177666 C2.1074819,10.9312018 2.80310383,11.2293255 3.53185062,11.2293255 L6.29777593,11.2293255 C6.54621233,11.2293255 6.72839903,11.0305764 6.72839903,10.7987024 C6.72839903,10.550266 6.5296499,10.3680793 6.29777593,10.3680793 L3.53185062,10.3680793 C3.03497781,10.3680793 2.57122985,10.1693302 2.22341888,9.82151921 C1.87560792,9.47370824 1.67685879,8.99339786 1.67685879,8.51308748 C1.67685879,8.01621467 1.87560792,7.55246671 2.22341888,7.20465574 C2.57122985,6.85684478 3.05154023,6.65809565 3.53185062,6.65809565 L3.97903615,6.65809565 C4.09497314,6.65809565 4.21091012,6.60840837 4.31028469,6.50903381 C4.39309682,6.40965925 4.42622167,6.29372226 4.42622167,6.17778527 C4.40965925,6.07841071 4.40965925,5.97903615 4.40965925,5.87966158 C4.40965925,5.08466509 4.72434536,4.33935587 5.27090545,3.77623336 C5.83402797,3.21311084 6.57933718,2.91498715 7.37433368,2.91498715 C7.83808164,2.91498715 8.28526717,3.01436171 8.69932784,3.22967326 C9.09682609,3.42842239 9.44463706,3.72654607 9.70963589,4.07435704 C9.79244802,4.19029403 9.92494744,4.23998131 10.0574469,4.23998131 C10.1568214,4.23998131 10.2396336,4.20685646 10.3224457,4.14060675 C10.4218202,4.07435704 10.4715075,3.95842005 10.48807,3.84248306 C10.5211948,3.67685879 10.48807,3.5609218 10.4218202,3.47810967 Z M12.9061843,5.89622401 C12.9061843,5.86309916 12.8896219,5.8299743 12.8730594,5.78028702 L12.856497,5.74716217 C12.7902473,5.61466275 12.6411855,5.51528819 12.4921236,5.49872576 L8.25214231,5.49872576 C8.06995561,5.49872576 7.92089377,5.59810033 7.83808164,5.74716217 L7.82151921,5.79684945 C7.80495678,5.8299743 7.80495678,5.86309916 7.78839436,5.89622401 L6.92714815,8.92714815 C7.05964757,8.8940233 7.19214698,8.86089844 7.3246464,8.86089844 L13.3699323,8.86089844 C13.5024317,8.86089844 13.6349311,8.8940233 13.7674305,8.92714815 L12.9061843,5.89622401 Z M13.4030571,9.17558456 L7.35777125,9.17558456 C7.02652271,9.17558456 6.76152388,9.44058339 6.76152388,9.7552695 C6.76152388,10.0699556 7.02652271,10.5005787 7.35777125,10.5005787 L13.4030571,10.5005787 C13.7343056,10.5005787 13.9993045,10.086518 13.9993045,9.7552695 C14.0158669,9.44058339 13.7343056,9.17558456 13.4030571,9.17558456 Z M12.7902473,10.1527677 C12.6080606,10.1527677 12.4589988,10.0037059 12.4589988,9.83808164 C12.4589988,9.65589494 12.6080606,9.52339552 12.7902473,9.52339552 C12.972434,9.52339552 13.1214958,9.67245737 13.1214958,9.83808164 C13.1214958,10.0037059 12.972434,10.1527677 12.7902473,10.1527677 Z" id="形状" fill="#000000" fill-rule="nonzero"></path>
            </g>
        </g>
    </g>
</svg>