<?xml version="1.0" encoding="UTF-8"?>
<svg width="46px" height="46px" viewBox="0 0 46 46" version="1.1" xmlns="http://www.w3.org/2000/svg" xmlns:xlink="http://www.w3.org/1999/xlink">
    <title>车巴巴-暂无商城数据</title>
    <defs>
        <filter color-interpolation-filters="auto" id="filter-1">
            <feColorMatrix in="SourceGraphic" type="matrix" values="0 0 0 0 0.921569 0 0 0 0 0.294118 0 0 0 0 0.376471 0 0 0 1.000000 0"></feColorMatrix>
        </filter>
    </defs>
    <g id="全局搜索" stroke="none" stroke-width="1" fill="none" fill-rule="evenodd">
        <g id="车巴巴-暂无商城数据" transform="translate(-705.000000, -374.000000)" filter="url(#filter-1)">
            <g transform="translate(705.000000, 374.000000)">
                <rect id="矩形" fill="#000000" fill-rule="nonzero" opacity="0" x="0" y="0" width="46" height="46"></rect>
                <path d="M18.160787,37.8204648 C16.3743981,37.0649567 14.7704166,35.9836158 13.3933796,34.6065346 C12.0163889,33.229546 10.9350463,31.6255669 10.1794907,29.8391808 C9.39685184,27.988767 9,26.024233 9,23.9999769 C9,21.9757207 9.39685184,20.0111867 10.1794907,18.1607729 C10.9350463,16.3743868 12.0163889,14.7704078 13.3933796,13.3934192 C14.7704167,12.016338 16.3743981,10.9350433 18.160787,10.1794889 C20.0111574,9.39680495 21.9757407,9 24,9 C25.4268981,9 26.8393055,9.20046265 28.1978704,9.59578611 C29.10625,9.86009124 29.6283334,10.8107379 29.3640278,11.7191162 C29.0997222,12.6274944 28.1491204,13.1496695 27.2406944,12.8852718 C26.1932407,12.5804574 25.1028703,12.4259206 24,12.4259206 C17.6180092,12.4259206 12.4259259,17.6179959 12.4259259,23.9999768 C12.4259259,30.3819577 17.6180092,35.574033 24,35.574033 C30.3819445,35.574033 35.5740741,30.3819577 35.5740741,23.9999768 C35.5740741,22.024378 35.0681945,20.0750292 34.1111574,18.3626707 C33.6495834,17.5368386 33.9448611,16.4932291 34.7706945,16.031702 C35.5964815,15.570175 36.6401389,15.865406 37.1016667,16.6912381 C38.3435648,18.9132254 39,21.4405826 39,23.9999768 C39,26.0242329 38.6031482,27.9887669 37.8205093,29.8391807 C37.0649537,31.6255668 35.9835648,33.2294995 34.6066204,34.6065345 C33.2295833,35.9836157 31.6255555,37.0649566 29.8391666,37.8204647 C27.9888889,38.6031951 26.0242593,39 24,39 C21.9757407,39 20.0111574,38.6031951 18.160787,37.8204648 Z M23.988287,30.5744111 C24.5203241,30.5744111 24.9746759,30.7663553 25.350463,31.1497806 C25.72625,31.5332986 25.9141204,31.9990386 25.9141204,32.5472785 C25.9141204,33.079361 25.72625,33.5373695 25.350463,33.9212115 C24.9746759,34.3046831 24.5203241,34.4966273 23.988287,34.4966273 C23.4715741,34.4966273 23.0253704,34.3046831 22.649537,33.9212115 C22.2737963,33.5373695 22.0858796,33.0793609 22.0858796,32.5472785 C22.0858796,31.9990386 22.2737963,31.5333449 22.649537,31.1497806 C23.0253704,30.7664016 23.4716204,30.5744111 23.988287,30.5744111 M22.320787,15.7079526 L25.3974537,15.7079526 L25.3974537,28.9070063 L22.320787,28.9070063 L22.320787,15.7079526 Z M23.988287,30.5744111 C24.5203241,30.5744111 24.9746759,30.7663553 25.350463,31.1497806 C25.72625,31.5332986 25.9141204,31.9990386 25.9141204,32.5472785 C25.9141204,33.079361 25.72625,33.5373695 25.350463,33.9212115 C24.9746759,34.3046831 24.5203241,34.4966273 23.988287,34.4966273 C23.4715741,34.4966273 23.0253704,34.3046831 22.649537,33.9212115 C22.2737963,33.5373695 22.0858796,33.0793609 22.0858796,32.5472785 C22.0858796,31.9990386 22.2737963,31.5333449 22.649537,31.1497806 C23.0253704,30.7664016 23.4716204,30.5744111 23.988287,30.5744111 M22.320787,15.7079526 L25.3974537,15.7079526 L25.3974537,28.9070063 L22.320787,28.9070063 L22.320787,15.7079526 Z" id="形状" fill="#000000" fill-rule="nonzero"></path>
            </g>
        </g>
    </g>
</svg>